<svg width="138" height="138" viewBox="0 0 138 138" fill="none" xmlns="http://www.w3.org/2000/svg">
<circle cx="78.5" cy="59.5" r="59.5" fill="#1569B2"/>
<g filter="url(#filter0_d_1820_13882)">
<path d="M55.3468 111.994C36.9526 108.76 27.8456 90.887 25.5914 82.3545C26.944 81.0073 37.3351 75.4542 31.0014 58.1043C25.5914 43.2847 17.4763 47.3264 8.68488 54.0626C1.65177 59.4515 2.59854 72.0257 3.95106 77.6392C12.7424 120.751 43.1741 129.267 53.3181 132.876C62.7857 136.244 76.3109 136.244 85.1023 128.16C93.8937 120.077 90.5124 109.973 77.6634 106.605C64.8145 103.237 61.4332 105.257 55.3468 111.994Z" fill="#24B24B"/>
</g>
<path d="M116.445 60.608C116.445 82.1848 98.9539 99.6762 77.3771 99.6762C68.7614 99.6762 60.7971 96.8874 54.3377 92.1631C53.335 92.1631 44.8239 96.0809 39.8114 98.1736C41.314 93.6657 42.8167 87.6552 44.8239 82.217C40.7074 76.0281 38.3088 68.5981 38.3088 60.608C38.3088 39.0312 55.8003 21.5397 77.3771 21.5397C98.9539 21.5397 116.445 39.0312 116.445 60.608Z" fill="white"/>
<circle cx="63.7151" cy="60.7151" r="4.71513" fill="#24B24B"/>
<circle cx="77.1453" cy="60.7151" r="4.71513" fill="#24B24B"/>
<circle cx="90.5755" cy="60.7151" r="4.71513" fill="#24B24B"/>
<defs>
<filter id="filter0_d_1820_13882" x="0" y="43" width="95" height="95" filterUnits="userSpaceOnUse" color-interpolation-filters="sRGB">
<feFlood flood-opacity="0" result="BackgroundImageFix"/>
<feColorMatrix in="SourceAlpha" type="matrix" values="0 0 0 0 0 0 0 0 0 0 0 0 0 0 0 0 0 0 127 0" result="hardAlpha"/>
<feOffset dx="1" dy="-1"/>
<feGaussianBlur stdDeviation="2"/>
<feComposite in2="hardAlpha" operator="out"/>
<feColorMatrix type="matrix" values="0 0 0 0 0 0 0 0 0 0 0 0 0 0 0 0 0 0 1 0"/>
<feBlend mode="normal" in2="BackgroundImageFix" result="effect1_dropShadow_1820_13882"/>
<feBlend mode="normal" in="SourceGraphic" in2="effect1_dropShadow_1820_13882" result="shape"/>
</filter>
</defs>
</svg>
